# xmcd
#
# Track frame offsets: 
#        150
#        40814
#        52512
#        68816
#        107822
#        133304
#        165227
#        190202
#        213092
#        226914
#        259038
#        272887
#        291843
#
# Disc length: 4201 seconds
#
# Revision: 0
# Processed by: cddbd v1.5.1PL0 Copyright (c) Steve Scherf et al.
# Submitted via: ExactAudioCopy v0.95a4
#
DISCID=b410670d
DTITLE=未知艺术家 - 中国古筝
DYEAR=1900
DGENRE=
TTITLE0=梁祝
TTITLE1=出水连
TTITLE2=渔舟晚唱
TTITLE3=春江花月夜
TTITLE4=高山流水
TTITLE5=汉宫秋月
TTITLE6=月儿高
TTITLE7=阳关三叠
TTITLE8=寒鸦戏水
TTITLE9=平沙落雁
TTITLE10=浏阳河
TTITLE11=平湖秋月
TTITLE12=禅院钟声
EXTD=
EXTT0=
EXTT1=
EXTT2=
EXTT3=
EXTT4=
EXTT5=
EXTT6=
EXTT7=
EXTT8=
EXTT9=
EXTT10=
EXTT11=
EXTT12=
PLAYORDER=
